<svg width="180" height="46" xmlns="http://www.w3.org/2000/svg">
 <defs>
  <clipPath id="clip0_2151_1148">
   <rect width="180" height="46" fill="white" id="svg_1"/>
  </clipPath>
 </defs>
 <g>
  <title>background</title>
  <rect x="-1" y="-1" width="182" height="48" id="canvas_background" fill="none"/>
 </g>
 <g>
  <title>Layer 1</title>
  <text xml:space="preserve" text-anchor="start" font-family="'Trebuchet MS', Gadget, sans-serif" font-size="24" id="svg_6" y="32.109375" x="46.5" stroke-width="0" stroke="#000" fill="#000000">PHITONTOP</text>
  <g clip-path="url(#clip0_2151_1148)" id="svg_2">
   <path d="m16.7273,39.309c9.2382,0 16.7272,-7.489 16.7272,-16.7272c0,-9.2383 -7.489,-16.72731 -16.7272,-16.72731c-9.23825,0 -16.7273,7.48901 -16.7273,16.72731c0,9.2382 7.48905,16.7272 16.7273,16.7272z" fill="#3758F9" id="svg_4"/>
   <path fill-rule="evenodd" clip-rule="evenodd" d="m10.5175,25.6612c-1.77422,-2.9568 -1.4784,-5.6184 0.8871,-7.9838c3.5483,-3.5485 6.6532,-1.3307 8.871,-2.6613c1.4786,-0.8872 2.07,-2.3655 1.7741,-4.4355c1.7742,2.9568 1.4785,5.6183 -0.887,7.9838c-3.5485,3.5484 -6.6533,1.3307 -8.871,2.6613c-1.4787,0.8871 -2.07,2.3655 -1.7742,4.4355zm0.8871,9.7581c-1.77419,-2.9568 -1.47846,-5.6183 0.8871,-7.9839c3.5484,-3.5484 6.6532,-1.3307 8.871,-2.6612c1.4786,-0.8872 2.0699,-2.3656 1.7742,-4.4355c1.7741,2.9568 1.4783,5.6183 -0.8872,7.9838c-3.5483,3.5484 -6.6532,1.3307 -8.8709,2.6613c-1.4787,0.8871 -2.07,2.3655 -1.7742,4.4355z" fill="white" id="svg_5"/>
  </g>
 </g>
</svg>